<?xml version="1.0" encoding="utf-8"?>
<!-- Generator: Adobe Illustrator 21.0.2, SVG Export Plug-In . SVG Version: 6.00 Build 0)  -->
<svg version="1.1" id="Layer_1" xmlns="http://www.w3.org/2000/svg" xmlns:xlink="http://www.w3.org/1999/xlink" x="0px" y="0px"
	 viewBox="0 0 320 150" style="enable-background:new 0 0 320 150;" xml:space="preserve">
<style type="text/css">
	.st0{fill:#B4CF34;}
	.st1{fill:#5E5E5E;}
</style>
<g>
	<path class="st0" d="M91.8,121V31.5h36.4c6.2,0,11.3,0.6,15.3,1.8c4.1,1.2,7.6,3.8,10.5,7.7c3,3.9,4.4,8.5,4.4,13.7
		c0,4.9-1.5,9.2-4.5,12.9c-3,3.6-7.2,6-12.4,7c6.6,1.1,11.5,3.7,14.9,7.7c3.4,4,5.1,8.8,5.1,14.3c0,6.9-2.4,12.7-7.1,17.4
		c-4.7,4.7-12,7-21.8,7H91.8z M107.7,69.1h20.5c4.2,0,7.5-1.2,9.9-3.6c2.4-2.4,3.7-5.5,3.7-9.2c0-4.1-1.4-7.1-4.2-9.1
		c-2.8-1.9-6-2.9-9.8-2.9h-20.2V69.1z M107.7,107.6h21.7c4.6,0,8.2-1.2,10.9-3.5c2.7-2.3,4-5.4,4-9.4c0-3.8-1.4-6.8-4.1-9.2
		c-2.7-2.4-6.3-3.6-10.8-3.6h-21.8V107.6z"/>
	<rect x="171.2" y="31.5" class="st0" width="16.8" height="89.5"/>
	<path class="st1" d="M99.1,131c0.9,0.3,1.7,0.8,2.3,1.6c0.5,0.6,0.8,1.3,1,2c0.2,0.7,0.3,1.4,0.3,2.1c0,1.7-0.4,3.1-1.1,4.2
		c-1,1.6-2.5,2.3-4.5,2.3h-5.8v-12.5h5.8C97.9,130.8,98.6,130.8,99.1,131 M94,132.9v8.1h2.6c1.3,0,2.2-0.6,2.8-1.8
		c0.3-0.7,0.4-1.5,0.4-2.4c0-1.3-0.2-2.2-0.6-2.9c-0.4-0.7-1.3-1-2.6-1H94z"/>
	<path class="st1" d="M115.6,134.2c0.7,0.3,1.3,0.7,1.7,1.4c0.4,0.6,0.7,1.2,0.8,1.9c0.1,0.4,0.1,1,0.1,1.8H111c0,0.9,0.4,1.6,1,1.9
		c0.4,0.2,0.9,0.3,1.4,0.3c0.6,0,1.1-0.1,1.4-0.4c0.2-0.2,0.4-0.4,0.5-0.6h2.6c-0.1,0.5-0.4,1.1-1,1.7c-0.9,0.9-2.1,1.4-3.7,1.4
		c-1.3,0-2.5-0.4-3.5-1.1c-1-0.8-1.5-2-1.5-3.7c0-1.6,0.5-2.8,1.4-3.7c0.9-0.9,2.1-1.3,3.5-1.3C114.2,133.7,114.9,133.9,115.6,134.2
		 M111.8,136.3c-0.4,0.4-0.6,0.8-0.7,1.4h4.5c0-0.6-0.3-1.1-0.7-1.5c-0.4-0.3-0.9-0.5-1.5-0.5C112.6,135.7,112.1,135.9,111.8,136.3"
		/>
	<path class="st1" d="M126.2,140.3c0.1,0.4,0.2,0.7,0.4,0.9c0.3,0.3,0.9,0.5,1.8,0.5c0.5,0,0.9-0.1,1.2-0.2c0.3-0.1,0.5-0.4,0.5-0.6
		c0-0.3-0.1-0.5-0.4-0.6c-0.2-0.1-1.1-0.4-2.7-0.7c-1.1-0.3-1.9-0.6-2.4-1c-0.5-0.4-0.7-0.9-0.7-1.7c0-0.8,0.4-1.6,1.1-2.2
		c0.7-0.6,1.7-0.9,3-0.9c1.2,0,2.3,0.2,3,0.7c0.8,0.5,1.2,1.3,1.3,2.4h-2.6c0-0.3-0.1-0.6-0.3-0.7c-0.3-0.3-0.8-0.5-1.5-0.5
		c-0.6,0-1,0.1-1.2,0.2c-0.2,0.2-0.4,0.4-0.4,0.6c0,0.3,0.1,0.5,0.4,0.6c0.3,0.1,1.2,0.3,2.7,0.7c1,0.2,1.8,0.6,2.3,1
		c0.5,0.5,0.8,1,0.8,1.7c0,0.9-0.4,1.7-1.1,2.2c-0.7,0.6-1.9,0.9-3.4,0.9c-1.6,0-2.7-0.3-3.5-0.9c-0.7-0.6-1.1-1.4-1.1-2.3H126.2z"
		/>
	<path class="st1" d="M143.2,137.6c0.5-0.1,0.8-0.1,1-0.2c0.4-0.1,0.6-0.4,0.6-0.7c0-0.4-0.1-0.6-0.4-0.8c-0.3-0.1-0.7-0.2-1.3-0.2
		c-0.6,0-1.1,0.1-1.3,0.4c-0.2,0.2-0.3,0.5-0.4,0.8h-2.5c0.1-0.8,0.3-1.5,0.7-2c0.7-0.8,1.9-1.2,3.5-1.2c1.1,0,2.1,0.2,2.9,0.6
		c0.8,0.4,1.3,1.2,1.3,2.3v4.2c0,0.3,0,0.6,0,1.1c0,0.3,0.1,0.5,0.2,0.7c0.1,0.1,0.2,0.2,0.4,0.3v0.4h-2.8c-0.1-0.2-0.1-0.4-0.2-0.5
		c0-0.2-0.1-0.4-0.1-0.6c-0.4,0.4-0.8,0.7-1.2,0.9c-0.6,0.3-1.2,0.5-1.9,0.5c-0.9,0-1.6-0.2-2.2-0.7c-0.6-0.5-0.9-1.1-0.9-2
		c0-1.1,0.5-2,1.4-2.5c0.5-0.3,1.3-0.5,2.3-0.6L143.2,137.6z M144.7,138.7c-0.2,0.1-0.3,0.2-0.5,0.2c-0.2,0.1-0.4,0.1-0.7,0.2
		l-0.6,0.1c-0.6,0.1-0.9,0.2-1.2,0.3c-0.4,0.2-0.6,0.6-0.6,1c0,0.4,0.1,0.7,0.4,0.9c0.2,0.2,0.6,0.3,0.9,0.3c0.6,0,1.1-0.2,1.6-0.5
		c0.5-0.3,0.7-0.9,0.7-1.7V138.7z"/>
	<path class="st1" d="M159.8,133.8c0,0,0.1,0,0.2,0v2.5c-0.2,0-0.3,0-0.4,0c-0.1,0-0.2,0-0.3,0c-1,0-1.7,0.3-2.1,0.9
		c-0.2,0.4-0.3,0.9-0.3,1.6v4.4h-2.6V134h2.5v1.6c0.4-0.6,0.7-1,1-1.3c0.5-0.4,1.1-0.6,1.9-0.6C159.7,133.8,159.7,133.8,159.8,133.8
		"/>
	<path class="st1" d="M171.7,133.8c0,0,0.1,0,0.2,0v2.5c-0.2,0-0.3,0-0.4,0c-0.1,0-0.2,0-0.3,0c-1,0-1.7,0.3-2.1,0.9
		c-0.2,0.4-0.3,0.9-0.3,1.6v4.4h-2.6V134h2.5v1.6c0.4-0.6,0.7-1,1-1.3c0.5-0.4,1.1-0.6,1.9-0.6C171.6,133.8,171.6,133.8,171.7,133.8
		"/>
	<path class="st1" d="M186.3,142.1c-0.8,1-2.1,1.4-3.8,1.4c-1.7,0-3-0.5-3.8-1.4c-0.8-1-1.2-2.1-1.2-3.5c0-1.3,0.4-2.5,1.2-3.5
		c0.8-1,2.1-1.5,3.8-1.5c1.7,0,3,0.5,3.8,1.5c0.8,1,1.3,2.1,1.3,3.5C187.6,140,187.2,141.1,186.3,142.1 M184.3,140.8
		c0.4-0.5,0.6-1.2,0.6-2.1c0-0.9-0.2-1.6-0.6-2.1c-0.4-0.5-1-0.8-1.7-0.8c-0.8,0-1.3,0.2-1.8,0.8c-0.4,0.5-0.6,1.2-0.6,2.1
		c0,0.9,0.2,1.6,0.6,2.1c0.4,0.5,1,0.8,1.8,0.8C183.3,141.5,183.9,141.3,184.3,140.8"/>
	<rect x="194.2" y="130.7" class="st1" width="2.6" height="12.5"/>
	<rect x="204" y="130.7" class="st1" width="2.6" height="12.5"/>
	<path class="st1" d="M217.7,137.6c0.5-0.1,0.8-0.1,1-0.2c0.4-0.1,0.6-0.4,0.6-0.7c0-0.4-0.1-0.6-0.4-0.8c-0.3-0.1-0.7-0.2-1.3-0.2
		c-0.6,0-1.1,0.1-1.3,0.4c-0.2,0.2-0.3,0.5-0.4,0.8h-2.5c0.1-0.8,0.3-1.5,0.7-2c0.7-0.8,1.9-1.2,3.5-1.2c1.1,0,2.1,0.2,2.9,0.6
		c0.8,0.4,1.3,1.2,1.3,2.3v4.2c0,0.3,0,0.6,0,1.1c0,0.3,0.1,0.5,0.2,0.7c0.1,0.1,0.2,0.2,0.4,0.3v0.4h-2.8c-0.1-0.2-0.1-0.4-0.2-0.5
		c0-0.2-0.1-0.4-0.1-0.6c-0.4,0.4-0.8,0.7-1.2,0.9c-0.6,0.3-1.2,0.5-1.9,0.5c-0.9,0-1.7-0.2-2.2-0.7c-0.6-0.5-0.9-1.1-0.9-2
		c0-1.1,0.5-2,1.4-2.5c0.5-0.3,1.3-0.5,2.3-0.6L217.7,137.6z M219.3,138.7c-0.2,0.1-0.3,0.2-0.5,0.2c-0.2,0.1-0.4,0.1-0.7,0.2
		l-0.6,0.1c-0.6,0.1-1,0.2-1.2,0.3c-0.4,0.2-0.6,0.6-0.6,1c0,0.4,0.1,0.7,0.4,0.9c0.3,0.2,0.6,0.3,0.9,0.3c0.6,0,1.1-0.2,1.6-0.5
		c0.5-0.3,0.7-0.9,0.7-1.7V138.7z"/>
	<path class="st1" d="M234.1,134.1c0.5,0.2,0.8,0.6,1.1,1v-4.4h2.6v12.5h-2.5v-1.3c-0.4,0.6-0.8,0.9-1.3,1.2
		c-0.5,0.3-1.1,0.4-1.8,0.4c-1.2,0-2.1-0.4-2.9-1.3c-0.8-0.9-1.2-2-1.2-3.4c0-1.6,0.4-2.8,1.2-3.7c0.8-0.9,1.8-1.4,3.1-1.4
		C233.1,133.8,233.6,133.9,234.1,134.1 M234.7,140.7c0.4-0.5,0.6-1.2,0.6-2c0-1.1-0.3-1.9-0.9-2.4c-0.4-0.3-0.8-0.4-1.3-0.4
		c-0.8,0-1.3,0.3-1.7,0.8c-0.4,0.5-0.5,1.2-0.5,2c0,0.9,0.2,1.5,0.5,2.1c0.4,0.5,0.9,0.8,1.6,0.8
		C233.8,141.5,234.3,141.2,234.7,140.7"/>
	<path class="st1" d="M253.1,142.1c-0.8,1-2.1,1.4-3.8,1.4c-1.7,0-3-0.5-3.8-1.4c-0.8-1-1.3-2.1-1.3-3.5c0-1.3,0.4-2.5,1.3-3.5
		c0.8-1,2.1-1.5,3.8-1.5c1.7,0,3,0.5,3.8,1.5c0.8,1,1.3,2.1,1.3,3.5C254.4,140,253.9,141.1,253.1,142.1 M251,140.8
		c0.4-0.5,0.6-1.2,0.6-2.1c0-0.9-0.2-1.6-0.6-2.1c-0.4-0.5-1-0.8-1.7-0.8c-0.8,0-1.3,0.2-1.8,0.8c-0.4,0.5-0.6,1.2-0.6,2.1
		c0,0.9,0.2,1.6,0.6,2.1c0.4,0.5,1,0.8,1.8,0.8C250,141.5,250.6,141.3,251,140.8"/>
	<path class="st1" d="M266.4,133.8c0,0,0.1,0,0.2,0v2.5c-0.2,0-0.3,0-0.4,0c-0.1,0-0.2,0-0.3,0c-1,0-1.7,0.3-2.1,0.9
		c-0.2,0.4-0.3,0.9-0.3,1.6v4.4h-2.6V134h2.5v1.6c0.4-0.6,0.8-1,1.1-1.3c0.5-0.4,1.1-0.6,1.9-0.6
		C266.3,133.8,266.4,133.8,266.4,133.8"/>
	<path class="st1" d="M279.3,134.2c0.7,0.3,1.3,0.7,1.7,1.4c0.4,0.6,0.7,1.2,0.8,1.9c0.1,0.4,0.1,1,0.1,1.8h-7.2
		c0,0.9,0.4,1.6,1,1.9c0.4,0.2,0.9,0.3,1.4,0.3c0.6,0,1.1-0.1,1.4-0.4c0.2-0.2,0.4-0.4,0.5-0.6h2.6c-0.1,0.5-0.4,1.1-1,1.7
		c-0.9,0.9-2.1,1.4-3.7,1.4c-1.3,0-2.5-0.4-3.5-1.1c-1-0.8-1.5-2-1.5-3.7c0-1.6,0.5-2.8,1.4-3.7c0.9-0.9,2.1-1.3,3.5-1.3
		C277.8,133.7,278.6,133.9,279.3,134.2 M275.4,136.3c-0.4,0.4-0.6,0.8-0.7,1.4h4.5c0-0.6-0.3-1.1-0.7-1.5c-0.4-0.3-0.9-0.5-1.5-0.5
		C276.3,135.7,275.7,135.9,275.4,136.3"/>
	<path class="st1" d="M289.8,140.3c0.1,0.4,0.2,0.7,0.4,0.9c0.3,0.3,0.9,0.5,1.8,0.5c0.5,0,0.9-0.1,1.2-0.2c0.3-0.1,0.5-0.4,0.5-0.6
		c0-0.3-0.1-0.5-0.4-0.6c-0.2-0.1-1.1-0.4-2.7-0.7c-1.1-0.3-1.9-0.6-2.4-1c-0.5-0.4-0.7-0.9-0.7-1.7c0-0.8,0.4-1.6,1.1-2.2
		c0.7-0.6,1.7-0.9,3-0.9c1.2,0,2.3,0.2,3,0.7c0.8,0.5,1.2,1.3,1.3,2.4h-2.6c0-0.3-0.1-0.6-0.3-0.7c-0.3-0.3-0.8-0.5-1.5-0.5
		c-0.6,0-1,0.1-1.2,0.2c-0.2,0.2-0.4,0.4-0.4,0.6c0,0.3,0.1,0.5,0.4,0.6c0.3,0.1,1.2,0.3,2.7,0.7c1,0.2,1.8,0.6,2.3,1
		c0.5,0.5,0.8,1,0.8,1.7c0,0.9-0.4,1.7-1.1,2.2c-0.7,0.6-1.9,0.9-3.4,0.9c-1.6,0-2.7-0.3-3.5-0.9c-0.7-0.6-1.1-1.4-1.1-2.3H289.8z"
		/>
	<path class="st0" d="M271.4,4.1c0,0,14.2,4.7,22.7,19.2c0,0-31,23.7-13.3,61.6c0,0-24.9-15.4-21.1-46.4c0,0-0.9-7.3,10.4-25.3
		C270.2,13.1,272.6,10.5,271.4,4.1"/>
	<path class="st0" d="M298.1,24.5c0,0,8.5,8.3,8.1,19.4c0,0-20.1,20.1-19.2,42.9c0,0-22.5-27.2,7.6-57.5
		C294.6,29.2,296,27.3,298.1,24.5"/>
	<path class="st0" d="M318.1,39.8c0,0-10.5,52.4-27.7,47.1C290.4,86.9,290.4,58.1,318.1,39.8"/>
	<path class="st0" d="M296.2,90.5c-21.8,28.4-41,14.9-47.3-7.8c-6.4-22.7,7.8-46.6,7.8-46.6S248.4,88.9,296.2,90.5z"/>
	<path class="st1" d="M41,31.3c5.8,0,11.2,0.9,16.2,2.8c5,1.8,9.3,4.6,13,8.3c3.6,3.7,6.5,8.3,8.6,13.8c2.1,5.5,3.1,12,3.1,19.5
		c0,6.5-0.8,12.6-2.5,18.1c-1.7,5.5-4.2,10.3-7.6,14.3c-3.4,4-7.6,7.2-12.7,9.5c-5.1,2.3-11,3.5-17.9,3.5H2.3V31.3H41z M38.6,104.5
		c2.8,0,5.6-0.5,8.3-1.4c2.7-0.9,5.1-2.5,7.2-4.6c2.1-2.1,3.8-4.9,5-8.4c1.3-3.4,1.9-7.6,1.9-12.6c0-4.5-0.4-8.6-1.3-12.3
		c-0.9-3.6-2.3-6.8-4.3-9.4c-2-2.6-4.7-4.6-8-6c-3.3-1.4-7.4-2.1-12.3-2.1H24.2v56.6H38.6z"/>
	<g>
		<path class="st0" d="M255.3,102.4c-4.6,4.5-10.2,6.7-16.8,6.7c-7.3,0-13.4-2.7-18.3-8.2c-4.8-5.5-7.3-13.7-7.3-24.7
			c0-11,2.4-19.2,7.3-24.6s10.9-8.2,18.3-8.2c3.7,0,7.1,0.7,10.2,2.1c1.7-5,3.6-9.1,4.9-11.7c-4.5-1.6-9.5-2.4-15-2.4
			c-10.7,0-19.8,3.2-27.3,9.5c-8.9,7.6-13.4,19.4-13.4,35.3c0,14.5,3.7,25.6,11.2,33.3c7.5,7.7,17.3,11.5,29.4,11.5
			c7.6,0,14.5-1.7,20.9-5.2c2.7-1.5,5-3.2,7.2-5.1C262.4,109.2,258.6,106.3,255.3,102.4z"/>
	</g>
</g>
</svg>
