<?xml version="1.0" encoding="utf-8"?>
<!-- Generator: Adobe Illustrator 21.0.2, SVG Export Plug-In . SVG Version: 6.00 Build 0)  -->
<svg version="1.1" id="Layer_1" xmlns="http://www.w3.org/2000/svg" xmlns:xlink="http://www.w3.org/1999/xlink" x="0px" y="0px"
	 viewBox="0 0 320 150" style="enable-background:new 0 0 320 150;" xml:space="preserve">
<style type="text/css">
	.st0{fill:#FFFFFF;}
	.st1{fill:#B4CF34;}
</style>
<g>
	<path class="st0" d="M92.5,122.4V33h36.3c6.1,0,11.2,0.6,15.3,1.8c4.1,1.2,7.6,3.8,10.5,7.7c3,3.9,4.4,8.4,4.4,13.7
		c0,4.9-1.5,9.2-4.5,12.9c-3,3.6-7.1,6-12.4,7c6.6,1.1,11.5,3.7,14.9,7.7c3.4,4,5.1,8.8,5.1,14.3c0,6.9-2.4,12.7-7.1,17.4
		c-4.7,4.7-12,7-21.8,7H92.5z M108.4,70.5h20.5c4.2,0,7.5-1.2,9.9-3.6c2.4-2.4,3.7-5.5,3.7-9.2c0-4.1-1.4-7.1-4.2-9.1
		c-2.8-1.9-6-2.9-9.8-2.9h-20.2V70.5z M108.4,109h21.7c4.6,0,8.2-1.2,10.9-3.5c2.7-2.3,4-5.4,4-9.4c0-3.8-1.4-6.8-4.1-9.2
		c-2.7-2.4-6.3-3.6-10.8-3.6h-21.8V109z"/>
	<rect x="171.8" y="33" class="st0" width="16.8" height="89.4"/>
	<path class="st0" d="M99.8,132.4c0.9,0.3,1.7,0.8,2.3,1.6c0.5,0.6,0.8,1.3,1,2c0.2,0.7,0.3,1.4,0.3,2.1c0,1.7-0.4,3.1-1.1,4.2
		c-1,1.6-2.5,2.3-4.5,2.3H92v-12.5h5.8C98.6,132.1,99.2,132.2,99.8,132.4 M94.7,134.3v8.1h2.6c1.3,0,2.2-0.6,2.8-1.8
		c0.3-0.7,0.4-1.5,0.4-2.4c0-1.3-0.2-2.2-0.6-2.9c-0.4-0.7-1.3-1-2.6-1H94.7z"/>
	<path class="st0" d="M116.3,135.5c0.7,0.3,1.3,0.7,1.7,1.4c0.4,0.6,0.7,1.2,0.8,1.9c0.1,0.4,0.1,1,0.1,1.8h-7.2
		c0,0.9,0.4,1.6,1,1.9c0.4,0.2,0.9,0.3,1.4,0.3c0.6,0,1.1-0.1,1.4-0.4c0.2-0.2,0.4-0.4,0.5-0.6h2.6c-0.1,0.5-0.4,1.1-1,1.7
		c-0.9,0.9-2.1,1.3-3.7,1.3c-1.3,0-2.5-0.4-3.5-1.1c-1-0.8-1.5-2-1.5-3.7c0-1.6,0.5-2.8,1.4-3.7c0.9-0.9,2.1-1.3,3.5-1.3
		C114.8,135.1,115.6,135.3,116.3,135.5 M112.4,137.6c-0.4,0.4-0.6,0.8-0.7,1.4h4.5c0-0.6-0.3-1.1-0.7-1.5c-0.4-0.3-0.9-0.5-1.5-0.5
		C113.3,137.1,112.8,137.3,112.4,137.6"/>
	<path class="st0" d="M126.9,141.6c0.1,0.4,0.2,0.7,0.4,0.9c0.3,0.3,0.9,0.5,1.8,0.5c0.5,0,0.9-0.1,1.2-0.2c0.3-0.1,0.5-0.4,0.5-0.6
		c0-0.3-0.1-0.5-0.4-0.6c-0.2-0.1-1.1-0.4-2.7-0.7c-1.1-0.3-1.9-0.6-2.4-1c-0.5-0.4-0.7-0.9-0.7-1.7c0-0.8,0.4-1.6,1.1-2.2
		c0.7-0.6,1.7-0.9,3-0.9c1.2,0,2.2,0.2,3,0.7c0.8,0.5,1.2,1.3,1.3,2.4h-2.6c0-0.3-0.1-0.6-0.3-0.7c-0.3-0.3-0.8-0.5-1.5-0.5
		c-0.6,0-1,0.1-1.2,0.2c-0.2,0.2-0.4,0.4-0.4,0.6c0,0.3,0.1,0.5,0.4,0.6c0.3,0.1,1.2,0.3,2.7,0.7c1,0.2,1.8,0.6,2.3,1
		c0.5,0.5,0.8,1,0.8,1.7c0,0.9-0.4,1.7-1.1,2.2c-0.7,0.6-1.9,0.9-3.4,0.9c-1.6,0-2.7-0.3-3.5-0.9c-0.7-0.6-1.1-1.4-1.1-2.3H126.9z"
		/>
	<path class="st0" d="M143.8,139c0.5-0.1,0.8-0.1,1-0.2c0.4-0.1,0.6-0.4,0.6-0.7c0-0.4-0.1-0.6-0.4-0.8c-0.3-0.1-0.7-0.2-1.3-0.2
		c-0.6,0-1.1,0.1-1.3,0.4c-0.2,0.2-0.3,0.5-0.4,0.8h-2.5c0.1-0.8,0.3-1.5,0.7-2c0.7-0.8,1.9-1.2,3.5-1.2c1.1,0,2.1,0.2,2.9,0.6
		c0.8,0.4,1.3,1.2,1.3,2.3v4.2c0,0.3,0,0.6,0,1.1c0,0.3,0.1,0.5,0.2,0.6c0.1,0.1,0.2,0.2,0.4,0.3v0.4h-2.8c-0.1-0.2-0.1-0.4-0.2-0.5
		c0-0.2-0.1-0.4-0.1-0.6c-0.4,0.4-0.8,0.7-1.2,0.9c-0.6,0.3-1.2,0.5-1.9,0.5c-0.9,0-1.6-0.2-2.2-0.7c-0.6-0.5-0.9-1.1-0.9-2
		c0-1.1,0.5-2,1.4-2.5c0.5-0.3,1.3-0.5,2.3-0.6L143.8,139z M145.4,140.1c-0.2,0.1-0.3,0.2-0.5,0.2c-0.2,0.1-0.4,0.1-0.7,0.2
		l-0.6,0.1c-0.6,0.1-0.9,0.2-1.2,0.3c-0.4,0.2-0.6,0.6-0.6,1c0,0.4,0.1,0.7,0.4,0.9c0.2,0.2,0.6,0.3,0.9,0.3c0.6,0,1.1-0.2,1.6-0.5
		c0.5-0.3,0.7-0.9,0.7-1.7V140.1z"/>
	<path class="st0" d="M160.4,135.1c0,0,0.1,0,0.2,0v2.5c-0.2,0-0.3,0-0.4,0c-0.1,0-0.2,0-0.3,0c-1,0-1.7,0.3-2.1,0.9
		c-0.2,0.4-0.3,0.9-0.3,1.6v4.4h-2.6v-9.2h2.5v1.6c0.4-0.6,0.7-1,1-1.3c0.5-0.4,1.1-0.6,1.9-0.6
		C160.3,135.1,160.3,135.1,160.4,135.1"/>
	<path class="st0" d="M172.3,135.1c0,0,0.1,0,0.2,0v2.5c-0.2,0-0.3,0-0.4,0c-0.1,0-0.2,0-0.3,0c-1,0-1.7,0.3-2.1,0.9
		c-0.2,0.4-0.3,0.9-0.3,1.6v4.4h-2.6v-9.2h2.5v1.6c0.4-0.6,0.7-1,1-1.3c0.5-0.4,1.1-0.6,1.9-0.6
		C172.2,135.1,172.2,135.1,172.3,135.1"/>
	<path class="st0" d="M186.9,143.5c-0.8,1-2.1,1.4-3.8,1.4c-1.7,0-3-0.5-3.8-1.4c-0.8-1-1.2-2.1-1.2-3.5c0-1.3,0.4-2.5,1.2-3.5
		c0.8-1,2.1-1.5,3.8-1.5c1.7,0,3,0.5,3.8,1.5c0.8,1,1.3,2.1,1.3,3.5C188.2,141.3,187.8,142.5,186.9,143.5 M184.8,142.1
		c0.4-0.5,0.6-1.2,0.6-2.1c0-0.9-0.2-1.6-0.6-2.1c-0.4-0.5-1-0.8-1.7-0.8c-0.8,0-1.3,0.2-1.8,0.8c-0.4,0.5-0.6,1.2-0.6,2.1
		c0,0.9,0.2,1.6,0.6,2.1c0.4,0.5,1,0.8,1.8,0.8C183.9,142.9,184.4,142.6,184.8,142.1"/>
	<rect x="194.7" y="132.1" class="st0" width="2.6" height="12.5"/>
	<rect x="204.6" y="132.1" class="st0" width="2.6" height="12.5"/>
	<path class="st0" d="M218.3,139c0.5-0.1,0.8-0.1,1-0.2c0.4-0.1,0.6-0.4,0.6-0.7c0-0.4-0.1-0.6-0.4-0.8c-0.3-0.1-0.7-0.2-1.3-0.2
		c-0.6,0-1.1,0.1-1.3,0.4c-0.2,0.2-0.3,0.5-0.4,0.8H214c0.1-0.8,0.3-1.5,0.7-2c0.7-0.8,1.9-1.2,3.5-1.2c1.1,0,2.1,0.2,2.9,0.6
		c0.8,0.4,1.3,1.2,1.3,2.3v4.2c0,0.3,0,0.6,0,1.1c0,0.3,0.1,0.5,0.2,0.6c0.1,0.1,0.2,0.2,0.4,0.3v0.4h-2.8c-0.1-0.2-0.1-0.4-0.2-0.5
		c0-0.2-0.1-0.4-0.1-0.6c-0.4,0.4-0.8,0.7-1.2,0.9c-0.6,0.3-1.2,0.5-1.9,0.5c-0.9,0-1.6-0.2-2.2-0.7c-0.6-0.5-0.9-1.1-0.9-2
		c0-1.1,0.5-2,1.4-2.5c0.5-0.3,1.3-0.5,2.3-0.6L218.3,139z M219.8,140.1c-0.2,0.1-0.3,0.2-0.5,0.2c-0.2,0.1-0.4,0.1-0.7,0.2
		l-0.6,0.1c-0.6,0.1-1,0.2-1.2,0.3c-0.4,0.2-0.6,0.6-0.6,1c0,0.4,0.1,0.7,0.4,0.9c0.3,0.2,0.6,0.3,0.9,0.3c0.6,0,1.1-0.2,1.6-0.5
		c0.5-0.3,0.7-0.9,0.7-1.7V140.1z"/>
	<path class="st0" d="M234.6,135.5c0.5,0.2,0.8,0.6,1.1,1v-4.4h2.6v12.5h-2.5v-1.3c-0.4,0.6-0.8,0.9-1.3,1.2
		c-0.5,0.3-1.1,0.4-1.8,0.4c-1.2,0-2.1-0.4-2.9-1.3c-0.8-0.9-1.2-2-1.2-3.4c0-1.6,0.4-2.8,1.2-3.7c0.8-0.9,1.8-1.4,3.1-1.4
		C233.6,135.1,234.1,135.3,234.6,135.5 M235.2,142.1c0.4-0.5,0.6-1.2,0.6-2c0-1.1-0.3-1.9-0.9-2.4c-0.4-0.3-0.8-0.4-1.3-0.4
		c-0.8,0-1.3,0.3-1.7,0.8c-0.4,0.5-0.5,1.2-0.5,2c0,0.9,0.2,1.5,0.5,2c0.4,0.5,0.9,0.8,1.6,0.8C234.3,142.8,234.8,142.6,235.2,142.1
		"/>
	<path class="st0" d="M253.6,143.5c-0.8,1-2.1,1.4-3.8,1.4c-1.7,0-3-0.5-3.8-1.4c-0.8-1-1.3-2.1-1.3-3.5c0-1.3,0.4-2.5,1.3-3.5
		c0.8-1,2.1-1.5,3.8-1.5c1.7,0,3,0.5,3.8,1.5c0.8,1,1.3,2.1,1.3,3.5C254.9,141.3,254.5,142.5,253.6,143.5 M251.6,142.1
		c0.4-0.5,0.6-1.2,0.6-2.1c0-0.9-0.2-1.6-0.6-2.1c-0.4-0.5-1-0.8-1.7-0.8c-0.8,0-1.3,0.2-1.8,0.8c-0.4,0.5-0.6,1.2-0.6,2.1
		c0,0.9,0.2,1.6,0.6,2.1c0.4,0.5,1,0.8,1.8,0.8C250.6,142.9,251.1,142.6,251.6,142.1"/>
	<path class="st0" d="M266.9,135.1c0,0,0.1,0,0.2,0v2.5c-0.2,0-0.3,0-0.4,0c-0.1,0-0.2,0-0.3,0c-1,0-1.7,0.3-2.1,0.9
		c-0.2,0.4-0.3,0.9-0.3,1.6v4.4h-2.6v-9.2h2.5v1.6c0.4-0.6,0.7-1,1-1.3c0.5-0.4,1.1-0.6,1.9-0.6
		C266.8,135.1,266.9,135.1,266.9,135.1"/>
	<path class="st0" d="M279.7,135.5c0.7,0.3,1.3,0.7,1.7,1.4c0.4,0.6,0.7,1.2,0.8,1.9c0.1,0.4,0.1,1,0.1,1.8h-7.2
		c0,0.9,0.4,1.6,1,1.9c0.4,0.2,0.9,0.3,1.4,0.3c0.6,0,1.1-0.1,1.4-0.4c0.2-0.2,0.4-0.4,0.5-0.6h2.6c-0.1,0.5-0.4,1.1-1,1.7
		c-0.9,0.9-2.1,1.3-3.7,1.3c-1.3,0-2.5-0.4-3.5-1.1c-1-0.8-1.5-2-1.5-3.7c0-1.6,0.5-2.8,1.4-3.7c0.9-0.9,2.1-1.3,3.5-1.3
		C278.3,135.1,279,135.3,279.7,135.5 M275.9,137.6c-0.4,0.4-0.6,0.8-0.7,1.4h4.5c0-0.6-0.3-1.1-0.7-1.5c-0.4-0.3-0.9-0.5-1.5-0.5
		C276.7,137.1,276.2,137.3,275.9,137.6"/>
	<path class="st0" d="M290.3,141.6c0.1,0.4,0.2,0.7,0.4,0.9c0.3,0.3,0.9,0.5,1.8,0.5c0.5,0,0.9-0.1,1.2-0.2c0.3-0.1,0.5-0.4,0.5-0.6
		c0-0.3-0.1-0.5-0.4-0.6c-0.2-0.1-1.1-0.4-2.7-0.7c-1.1-0.3-1.9-0.6-2.4-1c-0.5-0.4-0.7-0.9-0.7-1.7c0-0.8,0.4-1.6,1.1-2.2
		c0.7-0.6,1.7-0.9,3-0.9c1.2,0,2.2,0.2,3,0.7c0.8,0.5,1.2,1.3,1.3,2.4h-2.6c0-0.3-0.1-0.6-0.3-0.7c-0.3-0.3-0.8-0.5-1.5-0.5
		c-0.6,0-1,0.1-1.2,0.2c-0.2,0.2-0.4,0.4-0.4,0.6c0,0.3,0.1,0.5,0.4,0.6c0.3,0.1,1.2,0.3,2.7,0.7c1,0.2,1.8,0.6,2.3,1
		c0.5,0.5,0.8,1,0.8,1.7c0,0.9-0.4,1.7-1.1,2.2c-0.7,0.6-1.9,0.9-3.4,0.9c-1.6,0-2.7-0.3-3.5-0.9c-0.7-0.6-1.1-1.4-1.1-2.3H290.3z"
		/>
	<path class="st1" d="M271.9,5.6c0,0,14.2,4.7,22.7,19.2c0,0-31,23.7-13.2,61.5c0,0-24.8-15.4-21-46.4c0,0-0.9-7.3,10.4-25.3
		C270.7,14.6,273.1,12,271.9,5.6"/>
	<path class="st1" d="M298.6,26c0,0,8.5,8.3,8,19.4c0,0-20.1,20.1-19.2,42.8c0,0-22.5-27.2,7.6-57.5C295,30.7,296.5,28.8,298.6,26"
		/>
	<path class="st1" d="M318.5,41.3c0,0-10.5,52.4-27.6,47C290.9,88.4,290.8,59.5,318.5,41.3"/>
	<path class="st1" d="M296.7,91.9c-21.8,28.4-40.9,14.9-47.3-7.8c-6.4-22.7,7.8-46.6,7.8-46.6S248.9,90.3,296.7,91.9z"/>
	<path class="st0" d="M41.8,32.8c5.8,0,11.2,0.9,16.1,2.8c5,1.8,9.3,4.6,12.9,8.3c3.6,3.7,6.5,8.3,8.5,13.8c2.1,5.5,3.1,12,3.1,19.5
		c0,6.5-0.8,12.6-2.5,18.1c-1.7,5.5-4.2,10.3-7.6,14.3c-3.4,4-7.6,7.2-12.7,9.5c-5.1,2.3-11,3.5-17.9,3.5H3.1V32.8H41.8z
		 M39.3,105.9c2.8,0,5.6-0.5,8.3-1.4c2.7-0.9,5.1-2.5,7.2-4.6c2.1-2.1,3.8-4.9,5-8.4c1.3-3.4,1.9-7.6,1.9-12.6
		c0-4.5-0.4-8.6-1.3-12.3C59.5,63.1,58,60,56,57.4c-2-2.6-4.7-4.6-8-6c-3.3-1.4-7.4-2.1-12.2-2.1H24.9v56.5H39.3z"/>
	<g>
		<path class="st0" d="M255.8,103.8c-4.6,4.5-10.2,6.7-16.7,6.7c-7.3,0-13.4-2.7-18.3-8.2c-4.8-5.5-7.3-13.7-7.3-24.7
			c0-11,2.4-19.2,7.3-24.6c4.8-5.4,10.9-8.1,18.3-8.1c3.7,0,7.1,0.7,10.1,2.1c1.7-5,3.5-9.1,4.8-11.7c-4.5-1.6-9.5-2.4-15-2.4
			c-10.7,0-19.8,3.2-27.3,9.5c-8.9,7.6-13.4,19.4-13.4,35.3c0,14.5,3.7,25.6,11.2,33.2c7.5,7.7,17.3,11.5,29.4,11.5
			c7.6,0,14.5-1.7,20.9-5.2c2.7-1.5,5-3.2,7.2-5.1C262.9,110.6,259.1,107.7,255.8,103.8z"/>
	</g>
</g>
</svg>
